<svg width="180" height="120" viewBox="0 0 180 120" fill="none" xmlns="http://www.w3.org/2000/svg">
  <path d="M136 20C145 24 152 33 154 43C157 56 151 71 138 80C128 87 114 91 100 92C111 85 117 76 118 67C119 55 111 45 97 41C87 38 75 39 64 44C72 33 83 26 97 23C112 20 126 20 136 20Z" fill="#B88A36"/>
  <path d="M96 78C106 80 117 84 127 90C136 96 143 104 147 112C137 108 129 103 121 97C112 91 103 86 92 83L96 78Z" fill="#B88A36"/>
  <path d="M58 45C61 38 67 32 75 29C84 26 95 27 104 32C97 33 92 36 89 40C86 45 86 51 90 57C93 61 99 64 105 66C96 69 87 69 79 66C69 62 61 55 58 45Z" fill="#B88A36"/>
  <circle cx="121" cy="35" r="3" fill="#FFF8F1"/>
  <path d="M42 89C47 86 53 85 58 86C62 87 65 90 66 94C63 92 60 92 57 93C54 94 52 96 51 99C50 101 50 104 51 107C47 105 44 102 43 98C41 95 41 91 42 89Z" fill="#B88A36"/>
  <path d="M72 94C77 91 83 90 88 91C92 92 95 95 96 99C93 97 90 97 87 98C84 99 82 101 81 104C80 106 80 109 81 112C77 110 74 107 73 103C71 100 71 96 72 94Z" fill="#B88A36"/>
</svg>
