<svg width="295" height="20" viewBox="0 0 295 20" fill="none" xmlns="http://www.w3.org/2000/svg">
<path d="M34.6572 4.97672V0H0.5V4.97672H34.6572Z" fill="#004D8F"/>
<path d="M34.6572 20.0002V15.0234H0.5V20.0002H34.6572Z" fill="#FFA425"/>
<path d="M22.9639 14.1363H21.2116L25.8726 6.41426H27.8468L28.5127 14.1363H26.4567L26.3123 12.3489H23.947L22.9639 14.1363ZM24.4996 11.3443H26.231L26.0093 8.59961L24.4996 11.3443ZM19.3119 14.1569C20.0102 14.0411 20.5296 13.8133 20.9878 13.4477C21.899 12.7206 22.2319 11.4374 21.7051 10.5962C21.4314 10.1592 20.8727 9.85176 20.4129 9.55836C19.9531 9.26489 19.5861 8.98912 19.4336 8.67889C19.2811 8.36863 19.3199 8.00265 19.5219 7.80253C20.0408 7.28837 20.8813 7.41797 21.508 7.59057C21.8654 7.689 22.1486 7.83835 22.3916 8.03811L23.1158 6.88156C22.7796 6.64113 22.3975 6.47003 21.858 6.34414C21.3185 6.21825 20.6212 6.13756 20.0152 6.18247C19.4092 6.22737 18.8943 6.39795 18.4381 6.69997C17.9819 7.00201 17.5845 7.43549 17.3614 7.90271C17.1382 8.36994 17.0777 8.8746 17.2261 9.30378C17.5258 10.1699 18.3044 10.5527 18.9942 10.9656C19.2959 11.1461 19.5549 11.3513 19.6945 11.5964C19.834 11.8415 19.8535 12.1274 19.6854 12.3646C19.5173 12.6018 19.1615 12.7904 18.7518 12.8575C18.342 12.9246 17.8783 12.8702 17.4469 12.7393C17.0155 12.6084 16.6165 12.4009 16.2703 12.127L15.8147 13.4821C16.7737 14.3336 18.1394 14.3513 19.3119 14.1569ZM16.9945 6.41426H14.8217L12.3803 14.1363H14.553L16.9945 6.41426ZM14.2143 6.41426L9.45985 14.1363H7.39218L7.20522 8.02637C7.19673 7.74907 7.18927 7.46217 7.08459 7.24042C6.97989 7.01864 6.81591 6.86331 6.59767 6.75518C6.37944 6.64704 6.10713 6.58608 5.83846 6.58949V6.41426H9.24949L9.41646 11.6706L12.462 6.41426H14.2143Z" fill="#004D8F"/>
<path d="M33.4869 18.4873C33.1385 18.4873 32.8558 18.7667 32.8558 19.1136C32.8558 19.4653 33.1385 19.7447 33.4869 19.7447C33.8338 19.7447 34.1148 19.4653 34.1148 19.1136C34.1148 18.7667 33.8338 18.4873 33.4869 18.4873ZM33.4869 18.5804C33.784 18.5804 34.0201 18.8197 34.0201 19.1152C34.0201 19.4139 33.784 19.6515 33.4869 19.6515C33.1898 19.6515 32.9506 19.4139 32.9506 19.1152C32.9506 18.8197 33.1898 18.5804 33.4869 18.5804ZM33.5897 19.1425C33.7117 19.1409 33.8102 19.0895 33.8113 18.9498C33.8117 18.892 33.7805 18.8308 33.731 18.7988C33.676 18.7633 33.6186 18.7603 33.5608 18.7603H33.2509V19.4668H33.3408V19.1425H33.4966L33.6957 19.4668H33.8001L33.5897 19.1425ZM33.3408 19.075V18.8277H33.5399C33.6266 18.8277 33.7214 18.8406 33.7214 18.9466C33.7214 19.0895 33.5688 19.075 33.4709 19.075H33.3408Z" fill="white"/>
<path d="M29.0156 6.21387C28.6672 6.21387 28.3846 6.49328 28.3846 6.84014C28.3846 7.19181 28.6672 7.47124 29.0156 7.47124C29.3625 7.47124 29.6435 7.19181 29.6435 6.84014C29.6435 6.49328 29.3625 6.21387 29.0156 6.21387ZM29.0156 6.30701C29.3127 6.30701 29.5488 6.54627 29.5488 6.84175C29.5488 7.14044 29.3127 7.3781 29.0156 7.3781C28.7186 7.3781 28.4793 7.14044 28.4793 6.84175C28.4793 6.54627 28.7186 6.30701 29.0156 6.30701ZM29.1184 6.86905C29.2405 6.8675 29.3389 6.81605 29.34 6.67635C29.3404 6.61852 29.3093 6.5574 29.2597 6.5254C29.2047 6.48982 29.1473 6.48685 29.0895 6.48685H28.7796V7.19341H28.8695V6.86904H29.0253L29.2244 7.19341H29.3288L29.1184 6.86905ZM28.8695 6.8016V6.55431H29.0686C29.1553 6.55431 29.2501 6.56716 29.2501 6.67313C29.2501 6.81605 29.0975 6.8016 28.9996 6.8016H28.8695Z" fill="#004D8F"/>
<g clip-path="url(#clip0_127_1684)">
<path d="M89.4276 10.0556C89.4292 15.4929 84.8022 19.9016 79.093 19.903C73.3837 19.9043 68.7547 15.4979 68.7532 10.0606C68.7532 10.0588 68.7532 10.0573 68.7532 10.0556C68.7517 4.61834 73.3787 0.209453 79.0877 0.208008C84.797 0.206564 89.4261 4.61323 89.4276 10.0506C89.4276 10.0522 89.4276 10.0538 89.4276 10.0556Z" fill="#FF9900"/>
<path d="M65.1573 0.210987C59.4819 0.24532 54.8867 4.64276 54.8867 10.056C54.8867 15.4903 59.5178 19.9009 65.2239 19.9009C67.902 19.9009 70.3431 18.9289 72.1801 17.3358C72.1801 17.3358 72.1797 17.3355 72.1792 17.3353H72.1815C72.5576 17.0089 72.9084 16.6567 73.2309 16.2811H71.113C70.8302 15.9558 70.5732 15.6168 70.3423 15.267H73.9949C74.2171 14.9284 74.4182 14.5769 74.5967 14.2128H69.7393C69.5737 13.8748 69.43 13.5291 69.3073 13.1784H75.0292C75.374 12.1971 75.5612 11.1472 75.5612 10.0559C75.5612 9.33232 75.4788 8.62688 75.3229 7.94765H69.0038C69.0821 7.5981 69.1809 7.25276 69.2987 6.91343H75.0228C74.8948 6.55232 74.7461 6.20043 74.5771 5.85932H69.7387C69.9132 5.50421 70.111 5.15876 70.3318 4.82521H73.9817C73.7388 4.45665 73.47 4.10454 73.1794 3.77099H71.1444C71.4591 3.41832 71.8054 3.08621 72.1815 2.77654C70.3444 1.18321 67.9026 0.210987 65.2239 0.210987C65.2016 0.210987 65.1796 0.210876 65.1573 0.210987Z" fill="#CC0000"/>
<path d="M88.3905 15.2021C88.4468 15.2021 88.5015 15.216 88.5549 15.2434C88.6086 15.2707 88.6499 15.3101 88.6798 15.3614C88.7096 15.412 88.7246 15.4655 88.7246 15.5208C88.7246 15.5755 88.7097 15.6284 88.6803 15.679C88.6511 15.7296 88.6098 15.769 88.5566 15.7971C88.5039 15.8248 88.4483 15.8388 88.3904 15.8388C88.3326 15.8388 88.277 15.8248 88.2241 15.7971C88.171 15.7689 88.1299 15.7297 88.1 15.679C88.0706 15.6284 88.0561 15.5755 88.0561 15.5208C88.0561 15.4655 88.0709 15.412 88.1009 15.3614C88.131 15.3101 88.1725 15.271 88.2258 15.2434C88.2797 15.216 88.3344 15.2021 88.3905 15.2021ZM88.3905 15.2549C88.3438 15.2549 88.298 15.2665 88.2533 15.2895C88.209 15.3125 88.1744 15.345 88.1494 15.3881C88.1241 15.4306 88.1115 15.4746 88.1115 15.5208C88.1115 15.5666 88.1238 15.6108 88.1482 15.6528C88.1732 15.6947 88.2077 15.7276 88.2518 15.7511C88.2963 15.7746 88.3424 15.7861 88.3904 15.7861C88.4387 15.7861 88.4849 15.7746 88.5291 15.7511C88.5732 15.7276 88.6077 15.6947 88.6323 15.6528C88.6567 15.6108 88.6688 15.5667 88.6688 15.5208C88.6688 15.4746 88.6564 15.4305 88.6313 15.3881C88.6065 15.345 88.5717 15.3125 88.527 15.2895C88.4828 15.2664 88.4373 15.2549 88.3905 15.2549ZM88.244 15.6966V15.3541H88.3679C88.4099 15.3541 88.4405 15.3573 88.4594 15.3639C88.4783 15.3703 88.4933 15.381 88.5046 15.3969C88.5157 15.4126 88.5214 15.4293 88.5214 15.447C88.5214 15.4721 88.5121 15.4939 88.4932 15.5124C88.4748 15.5308 88.4497 15.5414 88.4187 15.5436C88.4314 15.5486 88.4415 15.5549 88.4495 15.5618C88.464 15.5751 88.4815 15.5977 88.5025 15.6296L88.5463 15.6966H88.4756L88.4439 15.6427C88.4188 15.6003 88.3986 15.5738 88.3831 15.5629C88.3725 15.5553 88.3569 15.5513 88.3368 15.5513H88.3026V15.6969H88.2442M88.3021 15.5038H88.3726C88.4062 15.5038 88.4289 15.4989 88.4412 15.4895C88.4535 15.4797 88.4597 15.4673 88.4597 15.4515C88.4597 15.4413 88.4569 15.4321 88.451 15.4244C88.4449 15.4163 88.4367 15.4105 88.4261 15.4064C88.4157 15.4025 88.3964 15.4003 88.3681 15.4003H88.3023V15.5038" fill="#FCB340"/>
<path d="M68.6543 12.8788L68.7919 11.9876C68.7167 11.9876 68.6061 12.0186 68.5083 12.0186C68.1252 12.0186 68.0773 11.8236 68.1074 11.6812L68.485 9.88898H69.0674L69.1874 8.87754H68.6385L68.7503 8.26465H67.602C67.5778 8.28776 66.9524 11.7115 66.9524 12.1286C66.9524 12.7459 67.3162 13.0205 67.8293 13.0162C68.2309 13.013 68.5439 12.9071 68.6543 12.8788Z" fill="#000066"/>
<path d="M69.0027 11.18C69.0027 12.6613 70.0293 13.0132 70.9041 13.0132C71.7115 13.0132 72.1349 12.835 72.1349 12.835L72.3288 11.8239C72.3288 11.8239 71.6465 12.0881 71.092 12.0881C69.9101 12.0881 70.1173 11.2487 70.1173 11.2487L72.3879 11.2553C72.3879 11.2553 72.5325 10.5763 72.5325 10.2995C72.5325 9.60874 72.1373 8.76074 70.9289 8.76074C69.8222 8.76096 69.0027 9.89663 69.0027 11.18ZM70.9331 9.69941C71.5542 9.69941 71.4397 10.3643 71.4397 10.4182H70.2177C70.2177 10.3493 70.3331 9.69941 70.9331 9.69941Z" fill="#000066"/>
<path d="M77.9025 12.8788L78.0996 11.7361C78.0996 11.7361 77.5592 11.994 77.1888 11.994C76.4079 11.994 76.0947 11.4262 76.0947 10.8161C76.0947 9.57864 76.7664 8.89775 77.5143 8.89775C78.0752 8.89775 78.5252 9.19764 78.5252 9.19764L78.7049 8.08731C78.7049 8.08731 78.1736 7.72186 77.6017 7.71975C75.8814 7.71331 74.8971 8.85398 74.8971 10.8259C74.8971 12.1329 75.626 13.0223 76.9395 13.0223C77.3108 13.0223 77.9025 12.8788 77.9025 12.8788Z" fill="#000066"/>
<path d="M62.6005 8.77734C61.8458 8.77734 61.2674 9.00834 61.2674 9.00834L61.1076 9.91134C61.1076 9.91134 61.5851 9.72657 62.307 9.72657C62.7169 9.72657 63.0167 9.77045 63.0167 10.0877C63.0167 10.2803 62.9801 10.3515 62.9801 10.3515C62.9801 10.3515 62.6567 10.3258 62.5069 10.3258C61.4324 10.3258 60.5551 10.7127 60.5551 11.8791C60.5551 12.7983 61.2112 13.0091 61.6177 13.0091C62.3944 13.0091 62.7018 12.5421 62.7195 12.5408L62.7106 12.9283H63.6797L64.1121 10.0417C64.1121 8.81668 62.9902 8.77734 62.6005 8.77734ZM62.7683 11.1213C62.7894 11.2976 62.7205 12.1309 62.0576 12.1309C61.7157 12.1309 61.627 11.882 61.627 11.7351C61.627 11.448 61.7906 11.1037 62.597 11.1037C62.7849 11.1037 62.7367 11.1166 62.7683 11.1213Z" fill="#000066"/>
<path d="M65.1421 12.9882C65.39 12.9882 66.8072 13.0483 66.8072 11.6555C66.8072 10.3532 65.4954 10.6106 65.4954 10.0873C65.4954 9.82707 65.7092 9.74507 66.1002 9.74507C66.2552 9.74507 66.8523 9.79207 66.8523 9.79207L66.9911 8.86651C66.9911 8.86651 66.6047 8.78418 65.9756 8.78418C65.1614 8.78418 64.3349 9.09374 64.3349 10.1528C64.3349 11.3531 65.713 11.2325 65.713 11.7381C65.713 12.0755 65.328 12.1033 65.0312 12.1033C64.5177 12.1033 64.0555 11.9354 64.0539 11.9435L63.907 12.8596C63.9337 12.8674 64.2189 12.9882 65.1421 12.9882Z" fill="#000066"/>
<path d="M86.9812 7.9375L86.7823 9.34961C86.7823 9.34961 86.3678 8.80461 85.7192 8.80461C84.499 8.80461 83.8702 9.96272 83.8702 11.2931C83.8702 12.1519 84.3186 12.9938 85.235 12.9938C85.8943 12.9938 86.2598 12.5559 86.2598 12.5559L86.2114 12.9298H87.2822L88.123 7.94517L86.9812 7.9375ZM86.5085 10.6821C86.5085 11.2357 86.2205 11.9754 85.624 11.9754C85.2278 11.9754 85.0421 11.6586 85.0421 11.1616C85.0421 10.3488 85.4253 9.81272 85.9091 9.81272C86.3051 9.81272 86.5085 10.0716 86.5085 10.6821Z" fill="#000066"/>
<path d="M56.6411 12.934L57.3111 9.17069L57.4096 12.934H58.1678L59.5824 9.17069L58.9558 12.934H60.0825L60.9502 7.94269L59.1603 7.92969L58.0956 10.9857L58.0664 7.94269H56.4261L55.5459 12.934H56.6411Z" fill="#000066"/>
<path d="M73.5988 12.9413C73.9192 11.2063 74.0333 9.83609 74.9676 10.1199C75.1017 9.44832 75.4215 8.86432 75.5676 8.58009C75.5676 8.58009 75.5214 8.51465 75.2326 8.51465C74.7397 8.51465 74.0816 9.46732 74.0816 9.46732L74.1799 8.87831H73.1549L72.4684 12.9412L73.5988 12.9413Z" fill="#000066"/>
<path d="M80.2079 8.77734C79.4528 8.77734 78.8744 9.00834 78.8744 9.00834L78.7147 9.91134C78.7147 9.91134 79.1924 9.72657 79.914 9.72657C80.324 9.72657 80.6237 9.77045 80.6237 10.0877C80.6237 10.2803 80.5872 10.3515 80.5872 10.3515C80.5872 10.3515 80.2639 10.3258 80.1141 10.3258C79.0395 10.3258 78.1624 10.7127 78.1624 11.8791C78.1624 12.7983 78.8183 13.0091 79.2249 13.0091C80.0013 13.0091 80.3089 12.5421 80.3265 12.5408L80.3174 12.9283H81.2868L81.7191 10.0417C81.7192 8.81668 80.5973 8.77734 80.2079 8.77734ZM80.3754 11.1213C80.3964 11.2976 80.3275 12.1309 79.6647 12.1309C79.3226 12.1309 79.234 11.882 79.234 11.7351C79.234 11.448 79.3975 11.1037 80.204 11.1037C80.392 11.1037 80.3439 11.1166 80.3754 11.1213Z" fill="#000066"/>
<path d="M82.8347 12.941C83.0107 11.6646 83.3363 9.8726 84.2034 10.1196C84.3374 9.44804 84.2081 9.44982 83.9195 9.44982C83.4262 9.44982 83.317 9.46693 83.317 9.46693L83.4155 8.87793H82.3906L81.7041 12.9409L82.8347 12.941Z" fill="#000066"/>
<path d="M68.9412 12.5615L69.0789 11.6705C69.0037 11.6705 68.893 11.7012 68.7953 11.7012C68.4122 11.7012 68.37 11.5072 68.3943 11.3637L68.7039 9.54571H69.2861L69.4267 8.56015H68.8777L68.9895 7.94727H67.8888C67.8646 7.97038 67.2391 11.3943 67.2391 11.8112C67.2391 12.4284 67.603 12.7033 68.1161 12.6988C68.5179 12.6956 68.8308 12.5897 68.9412 12.5615Z" fill="white"/>
<path d="M69.2899 10.8627C69.2899 12.344 70.3165 12.696 71.1912 12.696C71.9985 12.696 72.3538 12.5241 72.3538 12.5241L72.5477 11.5131C72.5477 11.5131 71.9335 11.7708 71.3789 11.7708C70.1971 11.7708 70.404 10.9316 70.404 10.9316H72.6408C72.6408 10.9316 72.7852 10.2524 72.7852 9.97558C72.7852 9.28492 72.4242 8.44336 71.2158 8.44336C70.1091 8.44358 69.2899 9.57925 69.2899 10.8627ZM71.22 9.38214C71.8411 9.38214 71.7266 10.0469 71.7266 10.1007H70.5046C70.5046 10.032 70.6201 9.38214 71.22 9.38214Z" fill="white"/>
<path d="M78.1897 12.5613L78.3866 11.4185C78.3866 11.4185 77.8466 11.6764 77.4759 11.6764C76.6952 11.6764 76.382 11.1086 76.382 10.4986C76.382 9.26114 77.0538 8.58036 77.8016 8.58036C78.3625 8.58036 78.8126 8.88025 78.8126 8.88025L78.9922 7.76992C78.9922 7.76992 78.3248 7.5127 77.7526 7.5127C76.482 7.5127 75.2459 8.56247 75.2459 10.534C75.2459 11.8414 75.9134 12.7048 77.2268 12.7048C77.5982 12.7049 78.1897 12.5613 78.1897 12.5613Z" fill="white"/>
<path d="M62.8877 8.45996C62.1329 8.45996 61.5544 8.69096 61.5544 8.69096L61.3947 9.59396C61.3947 9.59396 61.8722 9.40918 62.594 9.40918C63.0039 9.40918 63.3037 9.45307 63.3037 9.77029C63.3037 9.96296 63.2669 10.0341 63.2669 10.0341C63.2669 10.0341 62.9437 10.0083 62.794 10.0083C61.8421 10.0083 60.8421 10.3952 60.8421 11.5616C60.8421 12.4807 61.4982 12.6916 61.9047 12.6916C62.6813 12.6916 63.016 12.2117 63.0338 12.2103L62.9976 12.6109H63.9667L64.3991 9.72407C64.3991 8.49941 63.2773 8.45996 62.8877 8.45996ZM63.1234 10.8104C63.1444 10.9867 63.0074 11.8133 62.3447 11.8133C62.0029 11.8133 61.914 11.5646 61.914 11.4175C61.914 11.1306 62.0776 10.7862 62.8842 10.7862C63.0718 10.7864 63.0918 10.8055 63.1234 10.8104Z" fill="white"/>
<path d="M65.4291 12.6709C65.6771 12.6709 67.0943 12.7309 67.0943 11.3381C67.0943 10.036 65.7824 10.2932 65.7824 9.77013C65.7824 9.50969 65.9963 9.42769 66.3871 9.42769C66.5423 9.42769 67.1392 9.47469 67.1392 9.47469L67.2781 8.54913C67.2781 8.54913 66.8917 8.4668 66.2626 8.4668C65.4484 8.4668 64.6219 8.77635 64.6219 9.83546C64.6219 11.0356 66 10.9151 66 11.4207C66 11.7581 65.615 11.7856 65.3183 11.7856C64.8049 11.7856 64.3425 11.6178 64.3409 11.6258L64.1941 12.542C64.2207 12.5498 64.5058 12.6709 65.4291 12.6709Z" fill="white"/>
<path d="M87.3066 7.6296L87.0692 9.0326C87.0692 9.0326 86.6549 8.4876 86.0063 8.4876C84.9979 8.4876 84.1573 9.6456 84.1573 10.9762C84.1573 11.835 84.6056 12.6766 85.5222 12.6766C86.1815 12.6766 86.547 12.2388 86.547 12.2388L86.4986 12.6127H87.5691L88.4099 7.62793L87.3066 7.6296ZM86.7955 10.3652C86.7955 10.9188 86.5077 11.6584 85.9109 11.6584C85.5148 11.6584 85.3292 11.3417 85.3292 10.8447C85.3292 10.032 85.7125 9.49582 86.196 9.49582C86.5922 9.49571 86.7955 9.75493 86.7955 10.3652Z" fill="white"/>
<path d="M56.9282 12.6164L57.5982 8.85311L57.6966 12.6164H58.4549L59.8695 8.85311L59.2429 12.6164H60.3697L61.2374 7.625H59.495L58.4099 10.6876L58.3534 7.625H56.7473L55.867 12.6164H56.9282Z" fill="white"/>
<path d="M73.886 12.6241C74.2063 10.889 74.2657 9.48012 75.0302 9.73801C75.164 9.06646 75.2932 8.80668 75.4393 8.52246C75.4393 8.52246 75.3708 8.50879 75.227 8.50879C74.7341 8.50879 74.369 9.15012 74.369 9.15012L74.4671 8.56112H73.4423L72.7557 12.6241H73.886Z" fill="white"/>
<path d="M80.7293 8.45996C79.9746 8.45996 79.396 8.69096 79.396 8.69096L79.2364 9.59396C79.2364 9.59396 79.7139 9.40918 80.4358 9.40918C80.8456 9.40918 81.1452 9.45307 81.1452 9.77029C81.1452 9.96296 81.1087 10.0341 81.1087 10.0341C81.1087 10.0341 80.7854 10.0083 80.6356 10.0083C79.6838 10.0083 78.6839 10.3952 78.6839 11.5616C78.6839 12.4807 79.3398 12.6916 79.7464 12.6916C80.5229 12.6916 80.8576 12.2117 80.8754 12.2103L80.8393 12.6109C80.8393 12.6109 81.8081 12.6109 81.8085 12.6109L82.2407 9.72407C82.2408 8.49941 81.119 8.45996 80.7293 8.45996ZM80.9654 10.8104C80.9864 10.9867 80.8492 11.8133 80.1863 11.8133C79.8445 11.8133 79.7558 11.5646 79.7558 11.4175C79.7558 11.1306 79.9195 10.7862 80.7259 10.7862C80.9135 10.7864 80.9335 10.8055 80.9654 10.8104Z" fill="white"/>
<path d="M83.1265 12.6241C83.447 10.889 83.5064 9.48012 84.2707 9.73801C84.4047 9.06646 84.534 8.80668 84.6799 8.52246C84.6799 8.52246 84.6114 8.50879 84.4677 8.50879C83.9748 8.50879 83.6096 9.15012 83.6096 9.15012L83.7077 8.56112H82.6829L81.9964 12.6241H83.1265Z" fill="white"/>
<path d="M88.3861 11.9971C88.442 11.9971 88.4971 12.0107 88.5501 12.0385C88.6037 12.0654 88.6453 12.105 88.6752 12.1562C88.7052 12.2071 88.7199 12.2601 88.7199 12.3155C88.7199 12.3703 88.7052 12.4232 88.6757 12.4737C88.6464 12.5243 88.6052 12.564 88.5521 12.5918C88.4992 12.6196 88.4436 12.6336 88.386 12.6336C88.3279 12.6336 88.2724 12.6196 88.2193 12.5918C88.1663 12.5637 88.1252 12.5243 88.0958 12.4737C88.066 12.4232 88.0514 12.3703 88.0514 12.3155C88.0514 12.2601 88.0662 12.2071 88.0962 12.1562C88.1263 12.105 88.1681 12.0656 88.2214 12.0385C88.2752 12.0107 88.3302 11.9971 88.3861 11.9971ZM88.3861 12.0495C88.3393 12.0495 88.2936 12.0611 88.2489 12.0843C88.2043 12.107 88.1697 12.1397 88.1446 12.1826C88.1196 12.225 88.107 12.2693 88.107 12.3153C88.107 12.3613 88.1192 12.4053 88.1436 12.4473C88.1684 12.4892 88.2029 12.5221 88.2475 12.5457C88.2916 12.5688 88.3377 12.5805 88.3861 12.5805C88.4342 12.5805 88.4806 12.5688 88.5247 12.5457C88.5688 12.5221 88.6033 12.4892 88.6278 12.4473C88.6525 12.405 88.6645 12.3613 88.6645 12.3153C88.6645 12.2693 88.652 12.225 88.627 12.1826C88.6022 12.1397 88.5675 12.107 88.5227 12.0843C88.4784 12.0612 88.433 12.0495 88.3861 12.0495ZM88.2397 12.4913V12.1487H88.3635C88.4056 12.1487 88.4364 12.152 88.4551 12.1585C88.474 12.1646 88.4888 12.1756 88.5003 12.1915C88.5116 12.2073 88.5174 12.2238 88.5174 12.2416C88.5174 12.2666 88.5078 12.2885 88.4889 12.307C88.4705 12.3254 88.4456 12.3361 88.4146 12.3381C88.4269 12.3432 88.4372 12.3493 88.4451 12.3562C88.4595 12.3697 88.4772 12.3924 88.4982 12.4241L88.5422 12.4912H88.4712L88.4395 12.4373C88.4143 12.3947 88.3942 12.3683 88.3788 12.3575C88.3681 12.3496 88.3526 12.3457 88.3322 12.3457H88.2983V12.4914L88.2397 12.4913ZM88.2978 12.2985H88.3683C88.402 12.2985 88.4247 12.2937 88.4369 12.2842C88.4491 12.2748 88.4555 12.2621 88.4555 12.2462C88.4555 12.2361 88.4526 12.227 88.4468 12.2193C88.4408 12.2111 88.4325 12.2052 88.4219 12.2011C88.4113 12.1972 88.3923 12.1952 88.3638 12.1952H88.2979V12.2985" fill="white"/>
</g>
<g clip-path="url(#clip1_127_1684)">
<path d="M166.26 3.61366L169.643 9.99865L162.531 16.3867L166.26 3.61366Z" fill="#008C44"/>
<path d="M163.917 3.61366L167.295 9.99865L160.187 16.3867L163.917 3.61366Z" fill="#F47920"/>
<path d="M109.671 14.0635L113.044 2.51278H118.438C120.123 2.51278 121.249 2.76638 121.822 3.28897C122.391 3.80736 122.5 4.65352 122.158 5.84285C121.95 6.54346 121.635 7.13155 121.202 7.59619C120.773 8.06168 120.206 8.42976 119.509 8.70043C120.101 8.83563 120.477 9.10406 120.646 9.50657C120.814 9.90908 120.794 10.496 120.59 11.2655L120.18 12.8789L120.179 12.9226C120.06 13.3743 120.096 13.6162 120.288 13.6358L120.164 14.0635H116.516C116.528 13.7917 116.551 13.5487 116.575 13.3447C116.601 13.1359 116.634 12.9741 116.666 12.8629L117.007 11.7094C117.178 11.1096 117.189 10.6911 117.03 10.4501C116.869 10.2027 116.51 10.0809 115.942 10.0809H114.409L113.24 14.0635H109.671ZM115.168 7.47807H116.81C117.386 7.47807 117.81 7.39998 118.072 7.23847C118.335 7.07557 118.53 6.80042 118.645 6.40239C118.764 5.99764 118.735 5.71549 118.564 5.5551C118.394 5.3922 117.988 5.31298 117.348 5.31298H115.8L115.168 7.47807Z" fill="#1B3281"/>
<path d="M132.171 5.54065L129.684 14.0641H126.662L127.033 12.8155C126.501 13.312 125.957 13.6891 125.408 13.9301C124.864 14.1753 124.29 14.2959 123.685 14.2959C123.185 14.2959 122.756 14.2097 122.41 14.0387C122.061 13.8682 121.801 13.609 121.625 13.2672C121.47 12.968 121.402 12.5985 121.429 12.1571C121.457 11.7227 121.618 10.9899 121.917 9.96376L123.206 5.54065H126.512L125.226 9.94304C125.038 10.5874 124.993 11.0403 125.084 11.2869C125.18 11.5357 125.435 11.6642 125.848 11.6642C126.265 11.6642 126.615 11.5209 126.904 11.2284C127.197 10.9384 127.424 10.5059 127.594 9.93045L128.87 5.54065H132.171Z" fill="#1B3281"/>
<path d="M130.971 14.0635L134.341 2.51278H138.977C140 2.51278 140.792 2.57016 141.356 2.69612C141.92 2.81676 142.362 3.0127 142.69 3.28897C143.101 3.65033 143.354 4.09762 143.457 4.6342C143.555 5.17079 143.497 5.79582 143.283 6.52974C142.906 7.82096 142.244 8.81044 141.301 9.50181C140.355 10.1842 139.185 10.5271 137.788 10.5271H135.618L134.588 14.0635H130.971ZM136.44 7.7062H137.605C138.359 7.7062 138.889 7.61775 139.199 7.447C139.5 7.27402 139.713 6.96668 139.843 6.52974C139.974 6.08693 139.94 5.77735 139.743 5.60437C139.554 5.43222 139.07 5.34517 138.296 5.34517H137.132L136.44 7.7062Z" fill="#1B3281"/>
<path d="M147.172 14.0633L147.206 13.2538C146.673 13.6331 146.133 13.9197 145.59 14.0989C145.05 14.2814 144.474 14.374 143.858 14.374C142.921 14.374 142.268 14.1322 141.891 13.6642C141.518 13.1953 141.457 12.5222 141.711 11.6634C141.955 10.8158 142.388 10.1919 143.013 9.79304C143.634 9.38942 144.672 9.10055 146.129 8.91581C146.313 8.88726 146.561 8.86431 146.87 8.82876C147.947 8.71036 148.551 8.43773 148.681 7.99295C148.749 7.74943 148.708 7.56973 148.549 7.45945C148.395 7.34497 148.109 7.2887 147.695 7.2887C147.351 7.2887 147.074 7.35644 146.847 7.49724C146.621 7.63943 146.452 7.84712 146.337 8.13935H143.114C143.405 7.17982 144 6.45486 144.893 5.97006C145.782 5.47686 146.955 5.2395 148.408 5.2395C149.091 5.2395 149.702 5.30024 150.243 5.43207C150.785 5.55831 151.181 5.73829 151.437 5.95606C151.753 6.22785 151.94 6.53771 151.994 6.88032C152.055 7.22209 151.988 7.71193 151.799 8.35292L150.413 13.1049C150.369 13.2605 150.36 13.3994 150.384 13.5256C150.413 13.646 150.468 13.749 150.566 13.8226L150.492 14.0633H147.172ZM147.976 10.2574C147.625 10.3915 147.168 10.52 146.602 10.661C145.711 10.888 145.21 11.1909 145.102 11.5657C145.027 11.8067 145.057 11.9923 145.181 12.1334C145.303 12.2674 145.516 12.3352 145.815 12.3352C146.364 12.3352 146.804 12.2033 147.133 11.943C147.462 11.6793 147.708 11.2654 147.88 10.6943C147.91 10.5729 147.937 10.4855 147.954 10.4203L147.976 10.2574Z" fill="#1B3281"/>
<path d="M150.517 17.4218L151.25 14.899H152.196C152.513 14.899 152.761 14.8396 152.937 14.7316C153.116 14.6194 153.238 14.4301 153.308 14.1754C153.343 14.0632 153.364 13.9451 153.379 13.811C153.388 13.6688 153.388 13.5185 153.379 13.3444L152.874 5.53969H156.22L156.168 10.7113L159.09 5.53969H162.201L157.037 14.022C156.451 14.9701 156.025 15.6214 155.755 15.9769C155.488 16.3279 155.235 16.6008 154.989 16.7856C154.67 17.0411 154.314 17.2222 153.93 17.3278C153.545 17.4355 152.959 17.4893 152.171 17.4893C151.944 17.4893 151.683 17.4851 151.401 17.4711C151.121 17.4607 150.822 17.4448 150.517 17.4218Z" fill="#1B3281"/>
</g>
<path d="M228.568 16.8037H225.847L229.632 3.13339H232.354L228.568 16.8037Z" fill="#66686C"/>
<path d="M227.155 3.56727C226.967 3.30715 226.676 3.17588 226.28 3.17588H211.314L210.573 5.85335H213.296V5.8518H224.188L223.395 8.71303H212.503L212.504 8.7071H209.782L207.523 16.8633H210.246L211.763 11.3889H224.006C224.389 11.3889 224.748 11.2585 225.087 10.9977C225.425 10.7366 225.647 10.4146 225.753 10.0302L227.27 4.5547C227.38 4.15739 227.342 3.82768 227.155 3.56727Z" fill="#66686C"/>
<path d="M205.937 15.9505C205.787 16.4918 205.294 16.8662 204.732 16.8662H190.69C190.307 16.8662 190.023 16.7358 189.836 16.4752C189.649 16.2144 189.609 15.8918 189.715 15.5074L193.142 3.17345H195.866L192.806 14.1896H203.703L206.763 3.17345H209.487L205.937 15.9505Z" fill="#66686C"/>
<path d="M237.054 3.16035L240.5 10.0132L233.256 16.8643L237.054 3.16035Z" fill="#27803B"/>
<path d="M234.639 3.16035L238.082 10.0132L230.835 16.8643L234.639 3.16035Z" fill="#E9661C"/>
<g clip-path="url(#clip2_127_1684)">
<path d="M277.5 17.4124C279.557 15.5826 280.843 12.9381 280.843 9.99893C280.843 7.06004 279.557 4.41765 277.5 2.58756C275.7 0.978916 273.296 0 270.679 0C265.053 0 260.5 4.47647 260.5 9.99893C260.5 15.5235 265.053 20 270.679 20C273.295 20.0003 275.7 19.0192 277.5 17.4124Z" fill="#0066CB"/>
<path d="M277.5 17.4128C279.557 15.5829 280.843 12.9384 280.843 9.99926C280.843 7.06037 279.557 4.41798 277.5 2.58789" fill="#0066CB"/>
<path d="M277.5 17.4128C279.557 15.5829 280.843 12.9384 280.843 9.99926C280.843 7.06037 279.557 4.41798 277.5 2.58789" stroke="#0066CB" stroke-width="0.3097"/>
<path d="M284.336 0.000976562C281.705 0.000976562 279.3 0.979893 277.5 2.58854C277.137 2.91751 276.789 3.27097 276.472 3.64864H278.529C278.816 3.98373 279.073 4.33718 279.3 4.70687H275.7C275.489 5.04595 275.292 5.39941 275.11 5.7651H279.89C280.056 6.10845 280.192 6.46164 280.313 6.82521H274.687C274.566 7.16855 274.46 7.52199 274.384 7.88343H280.616C280.767 8.56586 280.843 9.27464 280.843 9.99991C280.843 11.1106 280.661 12.1792 280.313 13.1765H274.687C274.808 13.5398 274.944 13.8932 275.11 14.2363H279.89C279.708 14.6023 279.527 14.9555 279.3 15.2948H275.7C275.927 15.6645 276.199 16.0179 276.472 16.3533H278.529C278.211 16.7307 277.863 17.0842 277.5 17.4131C279.3 19.0199 281.705 20.001 284.336 20.001C289.948 20.001 294.5 15.5245 294.5 9.99991C294.5 4.47745 289.947 0.000976562 284.336 0.000976562Z" fill="#CC0001"/>
<path d="M293.426 15.5546H293.472C293.487 15.5546 293.502 15.5567 293.502 15.5503C293.517 15.5423 293.532 15.5301 293.532 15.5181C293.532 15.5056 293.517 15.4936 293.502 15.4875C293.502 15.4814 293.472 15.4832 293.472 15.4832H293.426V15.5546ZM293.426 15.7169H293.366V15.4327H293.487C293.517 15.4327 293.532 15.4327 293.562 15.447C293.577 15.4633 293.592 15.4896 293.592 15.5184C293.592 15.5506 293.577 15.5793 293.547 15.591L293.592 15.7172H293.517L293.487 15.6035H293.426V15.7169H293.426ZM293.472 15.8207C293.608 15.8207 293.729 15.7111 293.729 15.5748C293.729 15.4385 293.608 15.3289 293.472 15.3289C293.336 15.3289 293.23 15.4385 293.23 15.5748C293.23 15.7111 293.336 15.8207 293.472 15.8207ZM293.139 15.5748C293.139 15.3959 293.29 15.252 293.472 15.252C293.653 15.252 293.804 15.3959 293.804 15.5748C293.804 15.7537 293.653 15.8976 293.472 15.8976C293.29 15.8976 293.139 15.7537 293.139 15.5748Z" fill="#231F20"/>
<path d="M269.091 12.7824H267.805L268.561 8.8845L266.822 12.7824H265.763L265.551 8.90685L264.704 12.7824H263.54L264.523 7.71289H266.534L266.565 10.8509L267.956 7.71289H270.089L269.091 12.7824Z" fill="#231F20"/>
<path d="M283.232 12.7308C282.884 12.8245 282.612 12.865 282.325 12.865C281.674 12.865 281.326 12.5461 281.326 11.9592C281.326 11.8435 281.326 11.7197 281.356 11.5893L281.432 11.1852L281.492 10.8603L282.082 7.71191H283.338L283.156 8.65836H283.807L283.625 9.65964H282.975L282.642 11.3801C282.627 11.457 282.627 11.5121 282.627 11.5507C282.627 11.7639 282.748 11.8573 283.05 11.8573C283.202 11.8573 283.307 11.8453 283.398 11.8187L283.232 12.7308Z" fill="#231F20"/>
<path d="M278.211 9.9607C278.211 10.4826 278.499 10.8404 279.179 11.1102C279.693 11.3176 279.784 11.3785 279.784 11.5654C279.784 11.8235 279.557 11.9388 279.043 11.9388C278.665 11.9388 278.302 11.8885 277.893 11.7746L277.727 12.7269L277.772 12.7351L278.014 12.7777C278.09 12.79 278.196 12.8022 278.347 12.8142C278.65 12.8365 278.892 12.849 279.058 12.849C280.404 12.849 281.024 12.4123 281.024 11.4719C281.024 10.9072 280.767 10.5742 280.132 10.324C279.587 10.1148 279.527 10.0701 279.527 9.8774C279.527 9.65383 279.739 9.54019 280.147 9.54019C280.404 9.54019 280.752 9.56468 281.07 9.60327L281.251 8.64856C280.919 8.60384 280.419 8.56738 280.132 8.56738C278.695 8.56738 278.196 9.2011 278.211 9.9607Z" fill="#231F20"/>
<path d="M272.327 10.9459C272.192 10.9316 272.131 10.9278 272.04 10.9278C271.329 10.9278 270.966 11.1389 270.966 11.5552C270.966 11.8109 271.148 11.9757 271.42 11.9757C271.934 11.9759 272.312 11.5554 272.327 10.9459ZM273.189 12.7821H272.131L272.161 12.3536C271.828 12.6927 271.405 12.8532 270.83 12.8532C270.134 12.8532 269.665 12.3941 269.665 11.7279C269.665 10.7226 270.482 10.1376 271.888 10.1376C272.04 10.1376 272.221 10.1475 272.403 10.1698C272.448 10.0338 272.463 9.97499 272.463 9.9018C272.463 9.62766 272.236 9.52599 271.646 9.52599C271.283 9.52599 270.875 9.5707 270.587 9.64176L270.421 9.68434L270.3 9.71069L270.481 8.78474C271.116 8.62611 271.525 8.56543 271.994 8.56543C273.082 8.56543 273.657 8.98382 273.657 9.7759C273.657 9.97898 273.642 10.1334 273.552 10.5925L273.294 12.0547L273.249 12.3166L273.219 12.5258L273.189 12.6701V12.7821" fill="#231F20"/>
<path d="M276.729 10.2394C276.729 10.1542 276.744 10.0831 276.744 10.0302C276.744 9.69509 276.517 9.49787 276.139 9.49787C275.731 9.49787 275.443 9.76189 275.337 10.237L276.729 10.2394ZM277.349 12.6931C276.91 12.807 276.487 12.8615 276.048 12.8594C274.626 12.8594 273.9 12.2257 273.9 11.0133C273.9 9.59767 274.838 8.55566 276.109 8.55566C277.152 8.55566 277.818 9.13856 277.818 10.0544C277.818 10.3594 277.772 10.6535 277.651 11.0719H275.14C275.125 11.1347 275.125 11.1635 275.125 11.2018C275.125 11.679 275.504 11.9228 276.244 11.9228C276.698 11.9228 277.107 11.8438 277.56 11.6628L277.349 12.6931Z" fill="#231F20"/>
<path d="M289.569 10.4198C289.569 9.98917 289.388 9.58088 288.874 9.58088C288.224 9.58088 287.831 10.3325 287.831 10.9944C287.831 11.5531 288.103 11.9289 288.557 11.9204C288.829 11.9204 289.419 11.5528 289.524 10.9109C289.554 10.7629 289.569 10.5987 289.569 10.4198ZM290.855 10.913C290.673 12.284 289.69 12.8916 288.39 12.8916C286.968 12.8916 286.393 12.0386 286.393 10.9926C286.393 9.53005 287.361 8.54102 288.874 8.54102C290.19 8.54102 290.886 9.35546 290.886 10.4017C290.885 10.6554 290.885 10.6735 290.855 10.913Z" fill="#231F20"/>
<path d="M291.278 12.1483H291.324C291.324 12.1483 291.339 12.1483 291.354 12.1422C291.369 12.1361 291.369 12.122 291.369 12.1097C291.369 12.0996 291.369 12.0874 291.354 12.0815C291.354 12.0754 291.324 12.0754 291.309 12.0754H291.278V12.1483ZM291.278 12.3088H291.218V12.0246H291.339C291.354 12.0246 291.384 12.0267 291.414 12.0411C291.43 12.0552 291.444 12.0836 291.444 12.1121C291.444 12.1425 291.429 12.1731 291.399 12.185L291.444 12.3091H291.369L291.323 12.1973H291.278V12.3088ZM291.324 12.4123C291.46 12.4123 291.566 12.3027 291.566 12.1664C291.566 12.0323 291.46 11.9226 291.324 11.9226C291.188 11.9226 291.067 12.0323 291.067 12.1664C291.067 12.3027 291.188 12.4123 291.324 12.4123ZM290.991 12.1664C290.991 11.9897 291.143 11.8457 291.324 11.8457C291.506 11.8457 291.657 11.9897 291.657 12.1664C291.657 12.3453 291.505 12.4893 291.324 12.4893C291.142 12.4893 290.991 12.3453 290.991 12.1664Z" fill="white"/>
<path d="M269.408 12.4894H268.138L268.894 8.59181L267.154 12.4894H266.005L265.793 8.61629L265.037 12.4894H263.888L264.871 7.41992H266.852L266.942 10.56L268.349 7.41992H270.406L269.408 12.4894Z" fill="white"/>
<path d="M283.55 12.4409C283.202 12.5344 282.93 12.5748 282.642 12.5748C281.992 12.5748 281.644 12.2541 281.644 11.6694C281.644 11.5533 281.659 11.4298 281.674 11.2997L281.75 10.8951L281.81 10.568L282.4 7.41992H283.656L283.474 8.36638H284.124L283.943 9.36978H283.292L282.96 11.0899C282.945 11.1653 282.945 11.222 282.945 11.2608C282.945 11.4743 283.081 11.5656 283.383 11.5656C283.519 11.5656 283.625 11.5533 283.716 11.5267L283.55 12.4409Z" fill="white"/>
<path d="M286.802 9.55027L286.772 9.42039L287.029 8.77443C286.968 8.76831 286.938 8.76645 286.938 8.76246C286.862 8.74809 286.832 8.74009 286.817 8.74009C286.787 8.73184 286.741 8.72999 286.696 8.72999C286.273 8.72999 285.985 8.9107 285.592 9.3983L285.728 8.66504H284.412L283.641 12.7819H284.896C285.062 11.8374 285.138 11.2995 285.244 10.8523C285.41 10.1111 285.97 9.77384 286.378 9.8489C286.424 9.85715 286.454 9.85715 286.514 9.8795L286.59 9.90772L286.802 9.55027Z" fill="#231F20"/>
<path d="M287.24 8.40061C287.134 8.35989 287.119 8.35988 287.104 8.35589C287.043 8.34152 286.998 8.33354 286.998 8.33141C286.953 8.32529 286.907 8.32129 286.862 8.32129C286.454 8.32129 286.151 8.50415 285.758 8.99175L285.879 8.36601H284.729L283.958 12.489H285.228C285.682 9.96853 285.879 9.52591 286.484 9.52591C286.529 9.52591 286.574 9.52991 286.635 9.53603L286.786 9.56638L287.24 8.40061Z" fill="white"/>
<path d="M278.528 9.67012C278.528 10.1899 278.831 10.5495 279.512 10.8197C280.026 11.0249 280.101 11.0858 280.101 11.2748C280.101 11.5306 279.875 11.6463 279.375 11.6463C278.982 11.6463 278.634 11.5955 278.226 11.4837L278.045 12.4344L278.105 12.4443L278.332 12.4847C278.407 12.4994 278.529 12.5113 278.68 12.5217C278.982 12.5441 279.209 12.5561 279.375 12.5561C280.736 12.5561 281.357 12.1214 281.357 11.1811C281.357 10.6144 281.1 10.2834 280.449 10.0334C279.92 9.82424 279.859 9.77766 279.859 9.58443C279.859 9.36299 280.071 9.24933 280.479 9.24933C280.736 9.24933 281.069 9.27169 281.402 9.31028L281.583 8.35585C281.25 8.31114 280.751 8.27441 280.449 8.27441C279.028 8.27468 278.528 8.90839 278.528 9.67012Z" fill="white"/>
<path d="M272.6 10.6538C272.464 10.6397 272.403 10.6375 272.312 10.6375C271.601 10.6375 271.238 10.8486 271.238 11.2648C271.238 11.5209 271.405 11.6854 271.692 11.6854C272.206 11.6856 272.569 11.263 272.6 10.6538ZM273.522 12.4897H272.463L272.494 12.0633C272.176 12.4021 271.738 12.5608 271.162 12.5608C270.482 12.5608 270.013 12.1016 270.013 11.4355C270.013 10.4318 270.83 9.84518 272.236 9.84518C272.372 9.84518 272.554 9.85716 272.75 9.87765C272.781 9.74138 272.795 9.68469 272.795 9.60963C272.795 9.33735 272.569 9.23595 271.979 9.23595C271.616 9.23595 271.207 9.27853 270.935 9.3496L270.754 9.3943L270.648 9.42093L270.814 8.49257C271.449 8.33421 271.858 8.27539 272.327 8.27539C273.415 8.27539 273.99 8.69379 273.99 9.48401C273.99 9.68708 273.975 9.84146 273.9 10.3003L273.627 11.765L273.582 12.0269L273.552 12.236L273.537 12.3779L273.522 12.4897Z" fill="white"/>
<path d="M277.001 9.94835C277.001 9.86105 277.001 9.79184 277.001 9.73702C277.001 9.40193 276.789 9.20683 276.411 9.20683C276.003 9.20683 275.715 9.46873 275.594 9.94622L277.001 9.94835ZM277.667 12.4018C277.243 12.5135 276.82 12.5684 276.381 12.5684C274.959 12.5684 274.218 11.9347 274.218 10.7202C274.218 9.30664 275.155 8.26465 276.426 8.26465C277.47 8.26465 278.135 8.84752 278.135 9.7615C278.135 10.0662 278.089 10.3627 277.983 10.7809H275.473C275.458 10.844 275.458 10.8724 275.458 10.9108C275.458 11.3882 275.836 11.632 276.562 11.632C277.016 11.632 277.424 11.5506 277.877 11.3699L277.667 12.4018Z" fill="white"/>
<path d="M289.872 10.0932C289.872 9.66258 289.69 9.25456 289.176 9.25456C288.526 9.25456 288.133 10.0059 288.133 10.6681C288.133 11.2286 288.405 11.6047 288.859 11.5962C289.131 11.5962 289.721 11.2286 289.827 10.5867C289.857 10.4363 289.872 10.2721 289.872 10.0932ZM291.188 10.6215C290.991 11.9922 290.023 12.6015 288.723 12.6015C287.286 12.6015 286.711 11.7463 286.711 10.7003C286.711 9.23993 287.694 8.24902 289.207 8.24902C290.522 8.24902 291.218 9.06346 291.218 10.1094C291.218 10.3652 291.218 10.3817 291.188 10.6215Z" fill="white"/>
</g>
<defs>
<clipPath id="clip0_127_1684">
<rect width="35" height="20" fill="white" transform="translate(54.6572)"/>
</clipPath>
<clipPath id="clip1_127_1684">
<rect width="60" height="15" fill="white" transform="translate(109.657 2.5)"/>
</clipPath>
<clipPath id="clip2_127_1684">
<rect width="34" height="20" fill="white" transform="translate(260.5)"/>
</clipPath>
</defs>
</svg>
